<svg xmlns="http://www.w3.org/2000/svg" viewBox="32 63 218 58" width="218" height="58">
  <!-- Logo Oficial Diaconía FRIF-IFD -->
  <g fill-rule="evenodd">
    <path d="M 227.0,98.0 L 224.0,97.0 L 219.0,100.0 L 223.0,100.0 Z M 239.0,81.0 L 240.0,84.0 L 239.0,86.0 L 234.0,91.0 L 231.0,92.0 L 226.0,92.0 L 225.0,94.0 L 223.0,94.0 L 228.0,94.0 L 230.0,95.0 L 231.0,98.0 L 227.0,101.0 L 237.0,96.0 L 241.0,92.0 L 242.0,90.0 L 242.0,84.0 Z M 209.0,79.0 L 197.0,84.0 L 191.0,90.0 L 190.0,95.0 L 193.0,100.0 L 200.0,103.0 L 212.0,104.0 L 213.0,101.0 L 211.0,98.0 L 205.0,98.0 L 201.0,97.0 L 196.0,93.0 L 195.0,90.0 L 196.0,88.0 L 202.0,82.0 Z M 164.0,78.0 L 162.0,80.0 L 162.0,86.0 L 166.0,86.0 L 167.0,80.0 L 170.0,81.0 L 170.0,85.0 L 167.0,88.0 L 164.0,89.0 L 162.0,91.0 L 163.0,100.0 L 174.0,99.0 L 174.0,80.0 L 172.0,78.0 Z M 170.0,91.0 L 169.0,98.0 L 166.0,97.0 L 166.0,92.0 Z M 150.0,78.0 L 150.0,100.0 L 154.0,100.0 L 154.0,78.0 Z M 130.0,78.0 L 130.0,100.0 L 135.0,100.0 L 138.0,81.0 L 138.0,100.0 L 143.0,100.0 L 143.0,80.0 L 141.0,78.0 Z M 113.0,78.0 L 111.0,80.0 L 111.0,98.0 L 113.0,100.0 L 121.0,100.0 L 123.0,98.0 L 122.0,79.0 L 120.0,78.0 Z M 117.0,80.0 L 119.0,82.0 L 119.0,97.0 L 117.0,99.0 L 115.0,97.0 Z M 93.0,78.0 L 91.0,80.0 L 91.0,98.0 L 93.0,100.0 L 101.0,100.0 L 103.0,98.0 L 103.0,91.0 L 99.0,91.0 L 98.0,98.0 L 95.0,97.0 L 96.0,80.0 L 99.0,81.0 L 99.0,87.0 L 103.0,87.0 L 103.0,80.0 L 101.0,78.0 Z M 74.0,78.0 L 72.0,79.0 L 71.0,81.0 L 72.0,86.0 L 73.0,85.0 L 75.0,86.0 L 76.0,80.0 L 79.0,81.0 L 78.0,87.0 L 72.0,90.0 L 71.0,92.0 L 72.0,100.0 L 83.0,100.0 L 83.0,80.0 L 81.0,78.0 Z M 79.0,91.0 L 79.0,97.0 L 77.0,99.0 L 75.0,97.0 L 75.0,92.0 Z M 59.0,78.0 L 59.0,100.0 L 64.0,100.0 L 64.0,78.0 Z M 150.0,74.0 L 153.0,74.0 L 154.0,72.0 L 151.0,72.0 Z M 59.0,72.0 L 59.0,75.0 L 64.0,75.0 L 64.0,72.0 Z M 38.0,72.0 L 38.0,100.0 L 48.0,100.0 L 50.0,99.0 L 52.0,96.0 L 52.0,77.0 L 50.0,73.0 L 48.0,72.0 Z M 45.0,74.0 L 47.0,76.0 L 47.0,96.0 L 43.0,97.0 L 43.0,76.0 Z" fill="#0072CE" />
    <path d="M 221.0,105.0 L 218.0,105.0 L 217.0,106.0 L 212.0,106.0 L 209.0,109.0 L 204.0,111.0 L 195.0,111.0 L 188.0,108.0 L 194.0,112.0 L 201.0,114.0 L 205.0,114.0 L 215.0,111.0 L 218.0,109.0 Z M 182.0,85.0 L 182.0,87.0 L 183.0,83.0 L 190.0,76.0 L 194.0,74.0 L 204.0,74.0 L 209.0,76.0 L 216.0,83.0 L 218.0,88.0 L 218.0,95.0 L 221.0,95.0 L 222.0,94.0 L 226.0,93.0 L 226.0,88.0 L 225.0,84.0 L 221.0,77.0 L 217.0,73.0 L 211.0,70.0 L 206.0,69.0 L 196.0,70.0 L 192.0,72.0 L 188.0,75.0 L 184.0,80.0 Z" fill="#00A3AD" />
    <path d="" fill="#41B6E6" />
  </g>
</svg>